<svg viewBox="0 0 64 64" xmlns="http://www.w3.org/2000/svg"><path d="M12.172 3.998 6.048 12.57a.682.682 0 0 0 .554 1.078l17.312.017 7.255-10.232H13.27a1.35 1.35 0 0 0-1.098.565ZM57.712 12.626l-6.164-8.628a1.35 1.35 0 0 0-1.099-.565H32.56l7.233 10.255 17.363.016a.682.682 0 0 0 .556-1.078Z" fill="#906dc5" className="fill-000000"></path><path d="M37.99 15.815 33.21 9.04v20.869h17.239a1.75 1.75 0 0 0 1.75-1.75V16.4l-13.107-.013a1.352 1.352 0 0 1-1.102-.572ZM24.611 16.366h-.002l-13.089.01v11.782a1.75 1.75 0 0 0 1.75 1.75h17.24V9.03l-4.798 6.766a1.352 1.352 0 0 1-1.1.57ZM15.105 37.15H8.547a1.043 1.043 0 0 0-1.043 1.043v22.382a1.043 1.043 0 0 0 1.043 1.044h6.558a2.274 2.274 0 0 0 2.275-2.275v-19.92a2.274 2.274 0 0 0-2.275-2.274ZM56.328 39.778a3.804 3.804 0 0 0-3.185-1.716h-2.57a5.55 5.55 0 0 0-5.145 3.443 5.75 5.75 0 0 1-1.024 1.62 8.378 8.378 0 0 1-6.684 3.798h-7.612a1.35 1.35 0 0 1 0-2.7h7.576a5.078 5.078 0 0 0 2.724-.876v-.046a5.219 5.219 0 0 0-5.218-5.239h-5.586a7.737 7.737 0 0 0-5.497 2.271l-.143.142a7.246 7.246 0 0 1-3.885 2.013v14.91H40.45a15.43 15.43 0 0 0 14.19-9.346l2.007-4.67a3.802 3.802 0 0 0-.32-3.604Z" fill="#906dc5" className="fill-000000"></path></svg>