<svg viewBox="0 0 30 30" xml:space="preserve" xmlns="http://www.w3.org/2000/svg"><path d="M16.5 10.7H22c.4 0 .8-.3.8-.8s-.4-.7-.8-.7h-5.4c-.4 0-.8.3-.8.8s.3.7.7.7zm0 2.2h3.1c.4 0 .8-.3.8-.8s-.3-.8-.8-.8h-3.1c-.4 0-.8.3-.8.8s.4.8.8.8zm0-4.5H22c.4 0 .8-.3.8-.8s-.4-.7-.8-.7h-5.4c-.4 0-.8.3-.8.8s.3.7.7.7zM24.7.6H5.3C2.5.6.2 2.9.2 5.7V18c0 2.8 2.3 5.1 5.1 5.1h4.4l-.5 4.4c0 1 .8 1.8 1.8 1.8h8c1 0 1.8-.8 1.8-1.9l-.5-4.3h4.4c2.8 0 5.1-2.3 5.1-5.1V5.8c0-2.9-2.3-5.2-5.1-5.2zM19 27.9h-8c-.2 0-.3-.2-.3-.2l.6-4.5h7.6l.6 4.4c-.2.1-.3.3-.5.3zm9.3-9.9c0 2-1.6 3.6-3.6 3.6H5.3c-2 0-3.6-1.6-3.6-3.6V5.8c0-2 1.6-3.6 3.6-3.6h19.4c2 0 3.6 1.6 3.6 3.6V18zM25.2 3.9H4.8c-.5 0-.8.3-.8.8v12.7c0 .4.3.8.8.8h20.5c.4 0 .8-.3.8-.8V4.7c-.1-.5-.4-.8-.9-.8zm-.7 12.7h-19V5.4h19v11.2zm-15.7-.8h6.4c.6 0 1-.5 1-1v-.4c0-.6-.8-2.3-2.6-2.4-.2 0-.4.1-.6.2-.2.1-.8.3-1.1.3-.3 0-.9-.2-1.1-.2-.2-.2-.4-.3-.6-.3-1.7.1-2.6 1.5-2.6 2.2v.5c.2.6.6 1.1 1.2 1.1zm1.4-2.3c.6.4 1.6.5 1.8.5s1.2-.1 1.8-.5c.5.1.7.5.8.7H9.3s.2-.5.9-.7zm1.8-1.4c1.3 0 2.3-1.3 2.3-2.8 0-1.5-1.1-2.8-2.3-2.8-1.3 0-2.3 1.3-2.3 2.8-.1 1.5 1 2.8 2.3 2.8zM12 8c.4 0 .8.6.8 1.3 0 .7-.4 1.3-.8 1.3s-.8-.5-.8-1.3c-.1-.8.4-1.3.8-1.3z" fill="#906dc5" className="fill-262324"></path></svg>