<svg viewBox="0 0 48 48" xml:space="preserve" xmlns="http://www.w3.org/2000/svg"><g fill="#0f85d9" className="fill-241f20"><path d="M23.999 22.863c-10.014 0-18.131 8.119-18.131 18.133v6.973h36.264V40.997c0-10.015-8.119-18.134-18.133-18.134zM14.479 15.936l1.859-.656a8.867 8.867 0 0 0 1.916 2.236l-.898 1.877 4.033 1.928.896-1.877c.963.189 1.933.22 2.88.095l.682 1.934 3.371-1.191-.674-1.904a8.85 8.85 0 0 0 2.298-1.957l1.875.897 1.923-4.02-1.877-.898a8.885 8.885 0 0 0 .09-2.951l1.858-.655-1.19-3.371-1.859.655a8.875 8.875 0 0 0-1.907-2.229l.898-1.879L26.602.032l-.898 1.881a8.892 8.892 0 0 0-2.997-.079l-.63-1.785-3.373 1.191.641 1.815a8.824 8.824 0 0 0-2.176 1.872l-1.879-.898-1.935 4.046 1.88.898a8.845 8.845 0 0 0-.086 2.936l-1.859.655 1.189 3.372zM24 7.562a3 3 0 1 1 0 6 3 3 0 0 1 0-6z"></path></g></svg>